<?xml version="1.0" encoding="UTF-8" standalone="no"?>
<svg
   xmlns:dc="http://purl.org/dc/elements/1.1/"
   xmlns:cc="http://creativecommons.org/ns#"
   xmlns:rdf="http://www.w3.org/1999/02/22-rdf-syntax-ns#"
   xmlns:svg="http://www.w3.org/2000/svg"
   xmlns="http://www.w3.org/2000/svg"
   viewBox="0 170 1706.6667 1040"
   height="1040"
   width="1706.6667"
   xml:space="preserve"
   id="svg2"
   version="1.1"><metadata
     id="metadata8"><rdf:RDF><cc:Work
         rdf:about=""><dc:format>image/svg+xml</dc:format><dc:type
           rdf:resource="http://purl.org/dc/dcmitype/StillImage" /></cc:Work></rdf:RDF></metadata><defs
     id="defs6"><clipPath
       id="clipPath18"
       clipPathUnits="userSpaceOnUse"><path
         id="path16"
         d="M 0,907.183 V 209.677 c 2.165,-17.076 16.005,-48.334 60.079,-48.334 v 0 c 45.297,0 60.225,29.399 105.061,29.991 v 0 C 291.337,193 246.818,94.742 327.315,94.742 v 0 c 54.522,0 80.064,86.638 215.411,86.638 v 0 C 664.182,181.38 691.96,0 811.249,0 v 0 c 109.8,0 112.757,111.324 156.319,143.265 v 0 c 53.676,39.355 115.627,37.278 202.968,0.359 v 0 c 41.798,-17.668 70.641,-1.266 88.479,16.38 v 0 c 12.561,12.424 19.846,28.022 20.985,44.301 v 0 702.878 z" /></clipPath><linearGradient
       id="linearGradient28"
       spreadMethod="pad"
       gradientTransform="matrix(1369.2223,366.88199,366.88199,-1369.2223,-33.636528,333.43857)"
       gradientUnits="userSpaceOnUse"
       y2="0"
       x2="1"
       y1="0"
       x1="0"><stop
         id="stop24"
         offset="0"
         style="stop-opacity:1;stop-color:#eaa360" /><stop
         id="stop26"
         offset="1"
         style="stop-opacity:1;stop-color:#f1784b" /></linearGradient></defs><g
     transform="matrix(1.3333333,0,0,-1.3333333,0,1209.5773)"
     id="g10"><g
       id="g12"><g
         clip-path="url(#clipPath18)"
         id="g14"><g
           id="g20"><g
             id="g22"><path
               id="path30"
               style="fill:url(#linearGradient28);stroke:none"
               d="M 0,907.183 V 209.677 c 2.165,-17.076 16.005,-48.334 60.079,-48.334 v 0 c 45.297,0 60.225,29.399 105.061,29.991 v 0 C 291.337,193 246.818,94.742 327.315,94.742 v 0 c 54.522,0 80.064,86.638 215.411,86.638 v 0 C 664.182,181.38 691.96,0 811.249,0 v 0 c 109.8,0 112.757,111.324 156.319,143.265 v 0 c 53.676,39.355 115.627,37.278 202.968,0.359 v 0 c 41.798,-17.668 70.641,-1.266 88.479,16.38 v 0 c 12.561,12.424 19.846,28.022 20.985,44.301 v 0 702.878 z" /></g></g></g></g></g></svg>