<?xml version="1.0" encoding="utf-8"?>
<!-- Generator: Adobe Illustrator 13.0.0, SVG Export Plug-In . SVG Version: 6.00 Build 14948)  -->
<!DOCTYPE svg PUBLIC "-//W3C//DTD SVG 1.1//EN" "http://www.w3.org/Graphics/SVG/1.1/DTD/svg11.dtd">
<svg version="1.1" id="Layer_1" xmlns="http://www.w3.org/2000/svg" xmlns:xlink="http://www.w3.org/1999/xlink" x="0px" y="0px"
	 width="1280px" height="382px" viewBox="0 0 1280 382" enable-background="new 0 0 1280 382" xml:space="preserve">
<g>
	<defs>
		<path id="SVGID_1_" d="M0,0v172.323c2.165,17.076,16.005,48.334,60.079,48.334c45.297,0,60.225-29.399,105.061-29.991
			c126.197-1.666,81.678,96.592,162.175,96.592c54.522,0,80.064-86.638,215.411-86.638C664.182,200.62,691.96,382,811.249,382
			c109.8,0,112.757-111.324,156.319-143.265c53.676-39.355,115.627-37.278,202.968-0.359c41.798,17.668,70.641,1.266,88.479-16.38
			c12.562-12.424,19.847-28.022,20.985-44.301V0H0z"/>
	</defs>
	<clipPath id="SVGID_2_">
		<use xlink:href="#SVGID_1_"  overflow="visible"/>
	</clipPath>
	
		<linearGradient id="SVGID_3_" gradientUnits="userSpaceOnUse" x1="9.765625e-004" y1="382.001" x2="1.0005" y2="382.001" gradientTransform="matrix(1280.3143 0 0 -1280.3143 -0.4862 489271.3438)">
		<stop  offset="0" style="stop-color:#EAA360"/>
		<stop  offset="1" style="stop-color:#F1784B"/>
	</linearGradient>
	<rect clip-path="url(#SVGID_2_)" fill="url(#SVGID_3_)" width="1280" height="382"/>
</g>
</svg>
